<svg width="34" height="34" viewBox="0 0 34 34" fill="none" xmlns="http://www.w3.org/2000/svg">
<path d="M25.925 8.08943C25.3725 7.53693 24.48 7.53693 23.9275 8.08943L17 15.0027L10.0725 8.07526C9.52002 7.52276 8.62752 7.52276 8.07502 8.07526C7.52252 8.62776 7.52252 9.52027 8.07502 10.0727L15.0025 17.0002L8.07502 23.9277C7.52252 24.4802 7.52252 25.3727 8.07502 25.9252C8.62752 26.4777 9.52002 26.4777 10.0725 25.9252L17 18.9977L23.9275 25.9252C24.48 26.4777 25.3725 26.4777 25.925 25.9252C26.4775 25.3727 26.4775 24.4802 25.925 23.9277L18.9975 17.0002L25.925 10.0727C26.4634 9.53443 26.4634 8.62776 25.925 8.08943Z" fill="white"/>
</svg>
