<svg width="34" height="34" viewBox="0 0 34 34" fill="none" xmlns="http://www.w3.org/2000/svg">
<path d="M25.9255 8.08943C25.373 7.53693 24.4805 7.53693 23.928 8.08943L17.0005 15.0027L10.073 8.07526C9.52051 7.52276 8.62801 7.52276 8.07551 8.07526C7.52301 8.62776 7.52301 9.52027 8.07551 10.0727L15.003 17.0002L8.07551 23.9277C7.52301 24.4802 7.52301 25.3727 8.07551 25.9252C8.62801 26.4777 9.52051 26.4777 10.073 25.9252L17.0005 18.9977L23.928 25.9252C24.4805 26.4777 25.373 26.4777 25.9255 25.9252C26.478 25.3727 26.478 24.4802 25.9255 23.9277L18.998 17.0002L25.9255 10.0727C26.4639 9.53443 26.4639 8.62776 25.9255 8.08943Z" fill="#282573"/>
</svg>
